Coordinates
version=1
nRows=30
nColumns=38
inDegrees=no

Units are S.I. units (second, meters, Newtons, ...)
If the header above contains a line with 'inDegrees', this indicates whether rotational values are in degrees (yes) or radians (no).

endheader
time	pelvis_tilt	pelvis_list	pelvis_rotation	pelvis_tx	pelvis_ty	pelvis_tz	hip_flexion_r	hip_adduction_r	hip_rotation_r	knee_angle_r	ankle_angle_r	subtalar_angle_r	mtp_angle_r	hip_flexion_l	hip_adduction_l	hip_rotation_l	knee_angle_l	ankle_angle_l	subtalar_angle_l	mtp_angle_l	lumbar_extension	lumbar_bending	lumbar_rotation	arm_flex_r	arm_add_r	arm_rot_r	elbow_flex_r	pro_sup_r	wrist_flex_r	wrist_dev_r	arm_flex_l	arm_add_l	arm_rot_l	elbow_flex_l	pro_sup_l	wrist_flex_l	wrist_dev_l
0	-0.159702	1.1634	-1.36185	0.583521	2.09368	0.945536	-0.317786	0.107439	-0.208659	0.279958	-0.191559	0	0	0.174772	-0.117497	-0.0224078	1.43711	-0.0579028	0	0	-0.393813	0.129184	0.275442	-0.129312	-0.819418	0.0427596	1.53021	0.431575	0	0	0.609464	-0.485074	0.874	1.01234	0.591324	0	0
0.01	-0.144778	1.15888	-1.38436	0.58217	2.08438	0.946966	-0.345065	0.103663	-0.198783	0.257698	-0.194581	0	0	0.186728	-0.108824	-0.0329029	1.39847	-0.0617527	0	0	-0.400262	0.120694	0.28284	-0.127907	-0.818722	0.0426607	1.52948	0.432229	0	0	0.608153	-0.484872	0.870135	1.01346	0.597461	0	0
0.02	-0.130827	1.15644	-1.40463	0.580902	2.07515	0.947965	-0.366152	0.0982754	-0.195773	0.245049	-0.195877	0	0	0.199011	-0.0996624	-0.040552	1.35535	-0.0672873	0	0	-0.405065	0.11252	0.28904	-0.12738	-0.817106	0.0406705	1.52965	0.434224	0	0	0.606033	-0.484405	0.863918	1.01495	0.601105	0	0
0.03	-0.117909	1.15527	-1.42269	0.579758	2.06593	0.948726	-0.38529	0.0931918	-0.194633	0.233271	-0.195492	0	0	0.21107	-0.0907238	-0.0474414	1.30921	-0.0745829	0	0	-0.408147	0.104865	0.293921	-0.126337	-0.814829	0.0390129	1.52907	0.437066	0	0	0.603754	-0.483692	0.857628	1.01564	0.603595	0	0
0.04	-0.106933	1.15487	-1.43832	0.578659	2.05682	0.949307	-0.40276	0.0889529	-0.193427	0.222532	-0.194565	0	0	0.221683	-0.0833372	-0.0554518	1.26045	-0.082763	0	0	-0.410293	0.0978405	0.298122	-0.124036	-0.812169	0.0382536	1.52752	0.440405	0	0	0.602009	-0.482629	0.852147	1.01541	0.605073	0	0
0.05	-0.0979923	1.15635	-1.45156	0.577606	2.04765	0.949661	-0.417676	0.0853846	-0.19176	0.212563	-0.193158	0	0	0.231746	-0.077448	-0.0651224	1.20915	-0.0918308	0	0	-0.410426	0.0915284	0.301762	-0.121508	-0.809033	0.0377703	1.52559	0.444952	0	0	0.600613	-0.482424	0.848283	1.01505	0.60861	0	0
0.06	-0.0891678	1.16006	-1.46321	0.576754	2.03835	0.949668	-0.42991	0.0817543	-0.191838	0.203423	-0.190909	0	0	0.241591	-0.0713982	-0.0742361	1.15483	-0.101432	0	0	-0.407921	0.0857486	0.303627	-0.11918	-0.805089	0.0370288	1.52361	0.450713	0	0	0.59875	-0.48286	0.844781	1.01473	0.613623	0	0
0.07	-0.0825202	1.16548	-1.47165	0.576021	2.02894	0.949286	-0.440002	0.0794094	-0.191524	0.194886	-0.187241	0	0	0.250929	-0.0668199	-0.0819293	1.09828	-0.109796	0	0	-0.403262	0.0811273	0.30412	-0.116517	-0.800759	0.0366542	1.5215	0.456808	0	0	0.596082	-0.483397	0.840371	1.01465	0.617499	0	0
0.08	-0.0780157	1.1719	-1.47682	0.575468	2.01944	0.948531	-0.448558	0.0783183	-0.191443	0.187467	-0.182518	0	0	0.259015	-0.0629016	-0.0862009	1.03925	-0.11753	0	0	-0.396794	0.0778279	0.303516	-0.113894	-0.796631	0.0368169	1.51922	0.462043	0	0	0.59316	-0.483542	0.83582	1.0139	0.619231	0	0
0.09	-0.0999872	1.15312	-1.4697	0.573857	2.0084	0.948678	-0.489929	0.0870404	-0.182284	0.168249	-0.184504	0	0	0.231857	-0.0877059	-0.127319	0.981715	-0.119683	0	0	-0.412338	0.0847171	0.320039	-0.11863	-0.802648	0.0344715	1.52614	0.459906	0	0	0.591741	-0.486079	0.837653	1.0195	0.617483	0	0
0.1	-0.0575091	1.16239	-1.50485	0.573999	1.99973	0.948573	-0.493524	0.0712245	-0.193661	0.165931	-0.180983	0	0	0.234056	-0.0584013	-0.116876	0.900989	-0.14054	0	0	-0.406423	0.0658543	0.308737	-0.110979	-0.792661	0.0364948	1.51932	0.4653	0	0	0.592741	-0.487816	0.835683	1.01618	0.620365	0	0
0.11	-0.0785422	1.19527	-1.47235	0.575215	1.99042	0.944226	-0.466371	0.0824733	-0.189297	0.171555	-0.165915	0	0	0.27599	-0.052458	-0.0820615	0.851685	-0.146292	0	0	-0.37094	0.0763319	0.296239	-0.10892	-0.788421	0.0380178	1.51602	0.471309	0	0	0.585921	-0.487403	0.82937	1.01435	0.624468	0	0
0.12	-0.0841053	1.20658	-1.46442	0.57553	1.98046	0.942077	-0.465827	0.085422	-0.187626	0.172474	-0.154027	0	0	0.282387	-0.0497433	-0.0789005	0.793379	-0.151712	0	0	-0.356997	0.0783857	0.291776	-0.106035	-0.785858	0.0413647	1.51341	0.475103	0	0	0.580697	-0.487547	0.823765	1.01318	0.626917	0	0
0.13	-0.0701085	1.20593	-1.48064	0.575477	1.96967	0.941228	-0.4811	0.0798368	-0.19219	0.170624	-0.145606	0	0	0.266509	-0.045167	-0.0971078	0.730817	-0.156624	0	0	-0.355121	0.0723282	0.290925	-0.103923	-0.783701	0.0454623	1.51199	0.478527	0	0	0.575745	-0.489284	0.818952	1.01393	0.62696	0	0
0.14	-0.0779049	1.21274	-1.47028	0.575926	1.95973	0.939073	-0.4842	0.083845	-0.189437	0.173601	-0.137212	0	0	0.26514	-0.0446013	-0.0985725	0.682108	-0.155195	0	0	-0.346708	0.0758497	0.287427	-0.102789	-0.783832	0.0473414	1.51277	0.479822	0	0	0.573751	-0.49045	0.818	1.01396	0.628433	0	0
0.15	-0.0868061	1.2186	-1.45935	0.576365	1.94966	0.936978	-0.487748	0.0876569	-0.186226	0.178406	-0.127601	0	0	0.261234	-0.0445535	-0.100846	0.637117	-0.150841	0	0	-0.338847	0.0792648	0.284351	-0.101313	-0.783655	0.0497286	1.51251	0.480308	0	0	0.571966	-0.491444	0.817348	1.01362	0.630062	0	0
0.16	-0.0973924	1.2232	-1.44725	0.576771	1.93946	0.934898	-0.492529	0.0916636	-0.18303	0.183759	-0.117894	0	0	0.255098	-0.0456173	-0.103529	0.596035	-0.1442	0	0	-0.33217	0.0829212	0.281804	-0.0997108	-0.783984	0.0526312	1.51223	0.479856	0	0	0.570222	-0.493017	0.816875	1.01424	0.630618	0	0
0.17	-0.109351	1.22726	-1.43405	0.577187	1.92922	0.932842	-0.497432	0.0956771	-0.180349	0.189855	-0.108866	0	0	0.247491	-0.0474559	-0.104847	0.556737	-0.137486	0	0	-0.325999	0.0871769	0.279663	-0.0981933	-0.784797	0.0556577	1.5121	0.479091	0	0	0.567999	-0.494683	0.815723	1.01513	0.629629	0	0
0.18	-0.124102	1.23129	-1.41873	0.577527	1.91896	0.930787	-0.501564	0.100055	-0.177606	0.196933	-0.101008	0	0	0.239184	-0.0507108	-0.104574	0.519135	-0.13169	0	0	-0.319868	0.0921836	0.277924	-0.0960381	-0.784773	0.0588237	1.51149	0.478935	0	0	0.566103	-0.496506	0.815554	1.01571	0.628854	0	0
0.19	-0.0905477	1.21692	-1.462	0.576338	1.90872	0.932606	-0.523599	0.0854942	-0.17663	0.200038	-0.101394	0	0	0.237348	-0.0443863	-0.0862755	0.567284	-0.121096	0	0	-0.337299	0.076672	0.283394	-0.0860522	-0.779006	0.0668563	1.50433	0.481391	0	0	0.566684	-0.49867	0.814144	1.01269	0.629175	0	0
0.2	-0.160635	1.24166	-1.38324	0.578124	1.89817	0.926627	-0.503584	0.108159	-0.174205	0.216587	-0.08919	0	0	0.221169	-0.0607036	-0.0997423	0.443665	-0.127556	0	0	-0.305797	0.102606	0.275325	-0.0904039	-0.783386	0.0661874	1.5091	0.482177	0	0	0.561266	-0.500723	0.814844	1.01752	0.62764	0	0
0.21	-0.182751	1.24876	-1.3626	0.57841	1.88767	0.924495	-0.500232	0.111703	-0.173112	0.229844	-0.0841513	0	0	0.212512	-0.0669755	-0.0955333	0.405967	-0.133003	0	0	-0.296533	0.107929	0.274939	-0.0877718	-0.781675	0.0694744	1.50654	0.484564	0	0	0.558571	-0.502134	0.814291	1.01738	0.627868	0	0
0.22	-0.207782	1.25576	-1.33972	0.57861	1.87711	0.922387	-0.495834	0.11523	-0.171451	0.245193	-0.0799498	0	0	0.202899	-0.074364	-0.0908694	0.370244	-0.140311	0	0	-0.286958	0.113794	0.275451	-0.0852659	-0.77942	0.0723702	1.50339	0.487744	0	0	0.555574	-0.502507	0.812992	1.01618	0.626338	0	0
0.23	-0.233802	1.26299	-1.31649	0.57883	1.86643	0.92034	-0.490286	0.117896	-0.169344	0.262441	-0.0765913	0	0	0.192784	-0.0820117	-0.0871155	0.33779	-0.148977	0	0	-0.276946	0.119515	0.276517	-0.0830668	-0.776813	0.0750719	1.49984	0.491122	0	0	0.552235	-0.502686	0.811696	1.01475	0.624838	0	0
0.24	-0.258443	1.2707	-1.29494	0.579167	1.85561	0.918412	-0.483549	0.119088	-0.167164	0.281236	-0.074147	0	0	0.181938	-0.0891056	-0.0838625	0.308507	-0.159207	0	0	-0.266637	0.124206	0.277778	-0.0816161	-0.77385	0.077322	1.49623	0.494498	0	0	0.548701	-0.503232	0.810708	1.01367	0.625139	0	0
0.25	-0.282129	1.27777	-1.27462	0.57956	1.84458	0.916598	-0.477427	0.119449	-0.164247	0.300519	-0.0727399	0	0	0.170485	-0.0959078	-0.0805361	0.286459	-0.168428	0	0	-0.257106	0.128116	0.278942	-0.0802907	-0.770801	0.0798834	1.49272	0.498396	0	0	0.544611	-0.503914	0.808673	1.01335	0.624889	0	0
0.26	-0.29792	1.28242	-1.26269	0.580066	1.83324	0.915121	-0.475271	0.117336	-0.16124	0.31883	-0.0728946	0	0	0.15562	-0.1009	-0.0809403	0.271913	-0.174896	0	0	-0.250494	0.130094	0.280274	-0.0790437	-0.767851	0.0828116	1.48946	0.502406	0	0	0.540686	-0.505717	0.807418	1.01398	0.624911	0	0
0.27	-0.310739	1.28699	-1.2525	0.580731	1.82178	0.913655	-0.473846	0.115013	-0.157245	0.336013	-0.0742108	0	0	0.142967	-0.103996	-0.0830408	0.267652	-0.176127	0	0	-0.244503	0.131309	0.280781	-0.0792555	-0.765035	0.0844319	1.48749	0.50516	0	0	0.53771	-0.508322	0.807464	1.01531	0.625427	0	0
0.28	-0.31714	1.29218	-1.24765	0.58162	1.8102	0.912231	-0.471015	0.110683	-0.153932	0.356928	-0.0763312	0	0	0.131769	-0.10252	-0.0869866	0.264721	-0.176107	0	0	-0.238269	0.130214	0.279999	-0.0797762	-0.76165	0.0859339	1.48515	0.508705	0	0	0.535173	-0.511274	0.808139	1.01681	0.625565	0	0
0.29	-0.307477	1.29569	-1.25793	0.582797	1.79856	0.911324	-0.470749	0.102353	-0.152272	0.378707	-0.0799118	0	0	0.118239	-0.0944528	-0.0952771	0.256116	-0.183306	0	0	-0.23533	0.125213	0.278308	-0.0804353	-0.757481	0.0868831	1.48267	0.512588	0	0	0.533626	-0.513787	0.809202	1.01742	0.625848	0	0
